HIERARCHY
ROOT hip
{
  OFFSET 0 0 0
  CHANNELS 6 Xposition Yposition Zposition Zrotation Yrotation Xrotation
  JOINT abdomen
  {
    OFFSET 0 20.6881 -0.73152
    CHANNELS 3 Zrotation Xrotation Yrotation
    JOINT chest
    {
      OFFSET 0 11.7043 -0.48768
      CHANNELS 3 Zrotation Xrotation Yrotation
      JOINT neck
      {
        OFFSET 0 22.1894 -2.19456
        CHANNELS 3 Zrotation Xrotation Yrotation
        JOINT head
        {
          OFFSET -0.24384 7.07133 1.2192
          CHANNELS 3 Zrotation Xrotation Yrotation
          JOINT leftEye
          {
            OFFSET 4.14528 8.04674 8.04672
            CHANNELS 3 Zrotation Xrotation Yrotation
            End Site
            {
              OFFSET 1 0 0
            }
          }
          JOINT rightEye
          {
            OFFSET -3.6576 8.04674 8.04672
            CHANNELS 3 Zrotation Xrotation Yrotation
            End Site
            {
              OFFSET 1 0 0
            }
          }
        }
      }
      JOINT rCollar
      {
        OFFSET -2.68224 19.2634 -4.8768
        CHANNELS 3 Zrotation Xrotation Yrotation
        JOINT rShldr
        {
          OFFSET -8.77824 -1.95073 1.46304
          CHANNELS 3 Zrotation Xrotation Yrotation
          JOINT rForeArm
          {
            OFFSET -28.1742 -1.7115 0.48768
            CHANNELS 3 Zrotation Xrotation Yrotation
            JOINT rHand
            {
              OFFSET -22.5879 0.773209 7.07136
              CHANNELS 3 Zrotation Xrotation Yrotation
              JOINT rThumb1
              {
                OFFSET -1.2192 -0.487915 3.41376
                CHANNELS 3 Zrotation Xrotation Yrotation
                JOINT rThumb2
                {
                  OFFSET -3.37035 -0.52449 3.41376
                  CHANNELS 3 Zrotation Xrotation Yrotation
                  End Site
                  {
                    OFFSET -1.78271 -1.18214 1.43049
                  }
                }
              }
              JOINT rIndex1
              {
                OFFSET -7.75947 0.938293 5.60832
                CHANNELS 3 Zrotation Xrotation Yrotation
                JOINT rIndex2
                {
                  OFFSET -2.54057 -0.884171 1.56538
                  CHANNELS 3 Zrotation Xrotation Yrotation
                  End Site
                  {
                    OFFSET -1.62519 -0.234802 1.16502
                  }
                }
              }
              JOINT rMid1
              {
                OFFSET -8.24714 1.18213 3.41376
                CHANNELS 3 Zrotation Xrotation Yrotation
                JOINT rMid2
                {
                  OFFSET -3.10165 -0.590103 1.0647
                  CHANNELS 3 Zrotation Xrotation Yrotation
                  End Site
                  {
                    OFFSET -2.48547 -0.328903 0.83742
                  }
                }
              }
              JOINT rRing1
              {
                OFFSET -8.82822 0.546677 1.51678
                CHANNELS 3 Zrotation Xrotation Yrotation
                JOINT rRing2
                {
                  OFFSET -2.60934 -0.819778 -0.0198488
                  CHANNELS 3 Zrotation Xrotation Yrotation
                  End Site
                  {
                    OFFSET -2.33842 -0.294052 0.168128
                  }
                }
              }
              JOINT rPinky1
              {
                OFFSET -8.27202 -0.0477905 -0.4584
                CHANNELS 3 Zrotation Xrotation Yrotation
                JOINT rPinky2
                {
                  OFFSET -1.82734 -0.647385 -0.700984
                  CHANNELS 3 Zrotation Xrotation Yrotation
                  End Site
                  {
                    OFFSET -1.69225 -0.51767 -0.607171
                  }
                }
              }
            }
          }
        }
      }
      JOINT lCollar
      {
        OFFSET 2.68224 19.2634 -4.8768
        CHANNELS 3 Zrotation Xrotation Yrotation
        JOINT lShldr
        {
          OFFSET 8.77824 -1.95073 1.46304
          CHANNELS 3 Zrotation Xrotation Yrotation
          JOINT lForeArm
          {
            OFFSET 28.1742 -1.7115 0.48768
            CHANNELS 3 Zrotation Xrotation Yrotation
            JOINT lHand
            {
              OFFSET 22.5879 0.773209 7.07136
              CHANNELS 3 Zrotation Xrotation Yrotation
              JOINT lThumb1
              {
                OFFSET 1.2192 -0.487915 3.41376
                CHANNELS 3 Zrotation Xrotation Yrotation
                JOINT lThumb2
                {
                  OFFSET 3.37035 -0.52449 3.41376
                  CHANNELS 3 Zrotation Xrotation Yrotation
                  End Site
                  {
                    OFFSET 1.78271 -1.18214 1.43049
                  }
                }
              }
              JOINT lIndex1
              {
                OFFSET 7.75947 0.938293 5.60832
                CHANNELS 3 Zrotation Xrotation Yrotation
                JOINT lIndex2
                {
                  OFFSET 2.54057 -0.884171 1.56538
                  CHANNELS 3 Zrotation Xrotation Yrotation
                  End Site
                  {
                    OFFSET 1.62519 -0.234802 1.16502
                  }
                }
              }
              JOINT lMid1
              {
                OFFSET 8.24714 1.18213 3.41376
                CHANNELS 3 Zrotation Xrotation Yrotation
                JOINT lMid2
                {
                  OFFSET 3.10165 -0.590103 1.0647
                  CHANNELS 3 Zrotation Xrotation Yrotation
                  End Site
                  {
                    OFFSET 2.48547 -0.328903 0.83742
                  }
                }
              }
              JOINT lRing1
              {
                OFFSET 8.82822 0.546677 1.51678
                CHANNELS 3 Zrotation Xrotation Yrotation
                JOINT lRing2
                {
                  OFFSET 2.60934 -0.819778 -0.0198488
                  CHANNELS 3 Zrotation Xrotation Yrotation
                  End Site
                  {
                    OFFSET 2.33842 -0.294052 0.168128
                  }
                }
              }
              JOINT lPinky1
              {
                OFFSET 8.27202 -0.0477905 -0.4584
                CHANNELS 3 Zrotation Xrotation Yrotation
                JOINT lPinky2
                {
                  OFFSET 1.82734 -0.647385 -0.700984
                  CHANNELS 3 Zrotation Xrotation Yrotation
                  End Site
                  {
                    OFFSET 1.69225 -0.51767 -0.607171
                  }
                }
              }
            }
          }
        }
      }
    }
  }
  JOINT rButtock
  {
    OFFSET -8.77824 4.35084 1.2192
    CHANNELS 3 Zrotation Xrotation Yrotation
    JOINT rThigh
    {
      OFFSET 0 -1.70687 -2.19456
      CHANNELS 3 Zrotation Xrotation Yrotation
      JOINT rShin
      {
        OFFSET 0 -36.8199 0.73152
        CHANNELS 3 Zrotation Xrotation Yrotation
        JOINT rFoot
        {
          OFFSET 0.73152 -45.1104 -5.12064
          CHANNELS 3 Zrotation Xrotation Yrotation
          End Site
          {
            OFFSET -1.1221 -3.69964 12.103
          }
        }
      }
    }
  }
  JOINT lButtock
  {
    OFFSET 8.77824 4.35084 1.2192
    CHANNELS 3 Zrotation Xrotation Yrotation
    JOINT lThigh
    {
      OFFSET 0 -1.70687 -2.19456
      CHANNELS 3 Zrotation Xrotation Yrotation
      JOINT lShin
      {
        OFFSET 0 -36.8199 0.73152
        CHANNELS 3 Zrotation Xrotation Yrotation
        JOINT lFoot
        {
          OFFSET -0.73152 -45.1104 -5.12064
          CHANNELS 3 Zrotation Xrotation Yrotation
          End Site
          {
            OFFSET 1.1221 -3.69964 12.103
          }
        }
      }
    }
  }
}
MOTION
Frames:	4
Frame Time:	0.03333
-22.23 85.2711 -42.9803 5.4191 -18.6806 -30.6122 -10.549200000000003 47.8456 18.5128 -5.5932200000000005 -5.072159999999999 3.6021700000000005 -6.68623 14.815400000000002 -3.71639 8.29115 -19.630800000000004 -5.670800000000001 -0.0 0.0 0.0 -0.0 0.0 0.0 1.90963e-14 2.53065e-13 -7.5629e-14 32.6041 45.9569 25.6164 -25.8994 -23.1807 56.3155 -0.030882999999999997 5.042070000000001 0.710443 -2.91454e-09 -1.50784e-08 3.16146e-09 -5.02922e-09 -2.61087e-08 5.475350000000001e-09 -2.91454e-09 -1.50784e-08 3.16144e-09 7.730909999999999 5.47488 0.417314 -2.91454e-09 -1.50784e-08 3.16145e-09 2.90554 0.965183 0.102902 -2.9145200000000004e-09 -1.50784e-08 3.16146e-09 10.278600000000003 0.731801 0.0259123 -2.91454e-09 -1.50784e-08 3.16146e-09 2.22167 -0.733487 -0.20892000000000002 1.89769e-14 2.53065e-13 -7.59687e-14 -67.62059999999998 27.911699999999996 -3.2547999999999995 25.7956 -22.9215 -55.8994 0.528516 -20.3401 2.98386 -1.22001e-10 1.0927200000000001e-09 -4.9987e-09 -1.2418e-10 2.14628e-09 -8.64343e-09 -1.2200800000000004e-10 1.0927200000000001e-09 -4.99868e-09 -7.730909999999999 5.47488 -0.417314 -1.22001e-10 1.0927200000000001e-09 -4.99869e-09 -2.90554 0.965183 -0.102902 -1.22007e-10 1.0927200000000001e-09 -4.9987e-09 -10.278600000000003 0.731801 -0.0259123 -1.21999e-10 1.0927200000000001e-09 -4.99871e-09 -2.22167 -0.733487 0.20892000000000002 -2.03217e-16 0.0 -3.88251e-19 0.128806 4.68947 2.02121 -0.596629 44.9136 -0.00801505 -8.47822 -9.352359999999997 -18.1255 2.03217e-16 0.0 3.88251e-19 121.72299999999998 -81.13799999999999 84.901 0.194552 33.4294 -0.0352919 3.52132 -2.60924 18.4389
-21.9614 85.2905 -41.0735 5.647 -18.0964 -31.3176 -8.78898 47.62519999999999 15.4245 -5.38919 -4.725630000000001 3.12203 -6.60442 15.027099999999999 -3.37197 8.09065 -20.1247 -5.03138 -0.0 0.0 0.0 -0.0 0.0 0.0 3.02384e-13 2.68794e-13 -7.346199999999999e-13 34.7053 47.001 23.1673 -26.3503 -24.3713 58.2673 -0.018635 3.94656 0.555503 -4.7876e-09 -3.29105e-08 6.699440000000001e-09 -8.25535e-09 -5.6980199999999996e-08 1.15992e-08 -4.7876e-09 -3.29105e-08 6.699419999999999e-09 7.730909999999999 5.47488 0.417314 -4.7876e-09 -3.29105e-08 6.699440000000001e-09 2.90554 0.965183 0.102902 -4.7876e-09 -3.29105e-08 6.699440000000001e-09 10.278600000000003 0.731801 0.0259123 -4.78761e-09 -3.29105e-08 6.6994500000000005e-09 2.22167 -0.733487 -0.20892000000000002 3.02356e-13 2.6879300000000007e-13 -7.34733e-13 -67.3214 26.790099999999995 -3.8036100000000004 25.256600000000002 -21.656100000000002 -53.8658 0.338085 -16.4478 2.37592 1.57346e-09 7.11278e-09 -3.499889999999999e-09 2.77569e-09 1.24706e-08 -6.04357e-09 1.57345e-09 7.112789999999999e-09 -3.4998700000000002e-09 -7.730909999999999 5.47488 -0.417314 1.57346e-09 7.11278e-09 -3.499889999999999e-09 -2.90554 0.965183 -0.102902 1.57345e-09 7.11278e-09 -3.499889999999999e-09 -10.278600000000003 0.731801 -0.0259123 1.57345e-09 7.11278e-09 -3.4999e-09 -2.22167 -0.733487 0.20892000000000002 -2.03217e-16 0.0 -3.88251e-19 -0.4891730000000001 6.6039 1.17017 -0.5932 44.7685 -0.12528800000000004 -8.67898 -10.261000000000001 -18.2371 2.03217e-16 0.0 3.88251e-19 143.659 -79.7168 107.97000000000001 0.126821 32.6243 -0.230442 2.8965499999999995 -1.42563 18.0529
-21.7442 84.9899 -38.5778 5.141099999999999 -18.2507 -32.27120000000001 -7.88446 47.6413 14.4433 -5.088980000000001 -4.71177 2.94987 -6.56977 14.9835 -3.09305 8.378279999999998 -20.4641 -4.413360000000001 -0.0 0.0 0.0 -0.0 0.0 0.0 3.20295e-13 1.35956e-13 -6.87272e-13 37.5663 47.5868 19.282 -26.8132 -25.724999999999998 60.389500000000005 -0.0162517 3.59874 0.50647 -3.83869e-09 -2.8594199999999995e-08 5.76173e-09 -6.61813e-09 -4.951099999999999e-08 9.97627e-09 -3.83869e-09 -2.8594199999999995e-08 5.76172e-09 7.730909999999999 5.47488 0.417314 -3.83869e-09 -2.8594199999999995e-08 5.761740000000001e-09 2.90554 0.965183 0.102902 -3.83869e-09 -2.8594199999999995e-08 5.761740000000001e-09 10.278600000000003 0.731801 0.0259123 -3.8387e-09 -2.8594199999999995e-08 5.761740000000001e-09 2.22167 -0.733487 -0.20892000000000002 3.2026299999999996e-13 1.35956e-13 -6.87337e-13 -66.8422 25.839 -5.35328 24.618 -20.3055 -51.586800000000004 0.21223099999999998 -13.015200000000002 1.862 1.38522e-09 6.26635e-09 -1.9205e-09 2.42345e-09 1.09272e-08 -3.3142800000000003e-09 1.38522e-09 6.26635e-09 -1.9204799999999996e-09 -7.730909999999999 5.47488 -0.417314 1.38522e-09 6.26634e-09 -1.9205e-09 -2.90554 0.965183 -0.102902 1.38522e-09 6.26634e-09 -1.9205e-09 -10.278600000000003 0.731801 -0.0259123 1.38522e-09 6.26634e-09 -1.92051e-09 -2.22167 -0.733487 0.20892000000000002 -2.03217e-16 0.0 -3.88251e-19 -1.14042 8.28514 0.539201 -0.586564 45.5157 -0.000667817 -9.454560000000003 -11.1277 -19.153599999999997 2.03217e-16 0.0 3.88251e-19 160.72499999999997 -74.86089999999999 128.341 0.312965 40.5858 -0.482165 2.52751 -1.28692 15.3783
-21.7952 84.252 -35.7124 4.8463 -20.104200000000002 -33.4216 -7.81001 47.952999999999996 15.5576 -4.69585 -5.030999999999999 3.08537 -6.5786 14.684999999999999 -2.88061 9.14835 -20.6488 -3.8184100000000005 -0.0 0.0 0.0 -0.0 0.0 0.0 7.282790000000002e-14 -1.4545e-13 6.64174e-14 41.07809999999999 47.5519 14.0168 -27.252 -27.2055 62.729299999999995 -0.019875699999999996 3.998679999999999 0.562921 -6.77982e-11 -2.12961e-09 3.48326e-10 -1.1755800000000001e-10 -3.7010899999999997e-09 6.06505e-10 -6.77927e-11 -2.1296200000000003e-09 3.4831600000000006e-10 7.730909999999999 5.47488 0.417314 -6.779590000000001e-11 -2.12961e-09 3.48337e-10 2.90554 0.965183 0.102902 -6.77927e-11 -2.1296200000000003e-09 3.48331e-10 10.278600000000003 0.731801 0.0259123 -6.78012e-11 -2.1296200000000003e-09 3.48346e-10 2.22167 -0.733487 -0.20892000000000002 7.26985e-14 -1.4544799999999998e-13 6.62174e-14 -66.2208 25.03 -7.886199999999999 23.846699999999995 -18.8225 -49.068 0.12252 -10.0444 1.4260500000000003 -6.86696e-10 -1.44659e-09 -2.60525e-10 -1.1809e-09 -2.48406e-09 -4.55561e-10 -6.86705e-10 -1.4466e-09 -2.60512e-10 -7.730909999999999 5.47488 -0.417314 -6.867e-10 -1.4466e-09 -2.60521e-10 -2.90554 0.965183 -0.102902 -6.86704e-10 -1.4466e-09 -2.60526e-10 -10.278600000000003 0.731801 -0.0259123 -6.86694e-10 -1.4466e-09 -2.60529e-10 -2.22167 -0.733487 0.20892000000000002 -2.03217e-16 0.0 -3.88251e-19 -1.85224 9.73306 0.129807 -0.5991919999999998 47.1545 0.381999 -10.842 -11.9316 -20.8811 2.03217e-16 0.0 3.88251e-19 166.654 -66.62159999999999 139.424 1.01567 57.3124 -1.01051 2.28418 -2.2189899999999994 10.4087
